<svg xmlns="http://www.w3.org/2000/svg" xmlns:xlink="http://www.w3.org/1999/xlink" fill="none" version="1.1" width="14" height="16" viewBox="0 0 14 16"><defs><clipPath id="master_svg0_231_6758"><rect x="0" y="0" width="14" height="16" rx="0"/></clipPath></defs><g clip-path="url(#master_svg0_231_6758)"><g transform="matrix(1,0,0,-1,0,32.6875)"><g><path d="M6.859660445404053,32.31255Q7.015570445404053,32.34375,7.1714704454040525,32.31255L13.407560445404053,31.06255Q13.968760445404053,30.93755,13.999960445404053,30.34375Q13.968760445404053,29.74995,13.407560445404053,29.59375L11.006660445404053,29.12495L11.006660445404053,27.34375Q10.975460445404053,25.65625,9.852980445404052,24.5Q8.699310445404052,23.375,7.015570445404053,23.34375Q5.331820445404053,23.375,4.178150445404053,24.5Q3.055660445404053,25.65625,3.024480445404053,27.34375L3.024480445404053,29.12495L1.5278204454040527,29.43755L1.5278204454040527,27.40625L2.0267004454040527,24.9375Q2.0578804454040527,24.71875,1.9019804454040528,24.53125Q1.7772604454040528,24.34375,1.5278204454040527,24.34375L0.5300434454040527,24.34375Q0.31178044540405275,24.34375,0.15587844540405274,24.53125Q-0.00002325459594726409,24.71875,0.031157175404052734,24.9375L0.5300434454040527,27.40625L0.5300434454040527,29.62495Q0.06233754540405274,29.81255,0.031157175404052734,30.34375Q0.06233754540405274,30.93755,0.6235844454040528,31.06255L6.859660445404053,32.31255ZM3.5233604454040526,22.09375Q4.053430445404053,22.25,4.427590445404053,21.84375L6.641400445404053,19.46875Q7.015570445404053,19.15625,7.389730445404052,19.46875L9.603540445404052,21.84375Q9.977700445404052,22.25,10.507760445404053,22.09375Q12.066760445404054,21.59375,13.002160445404053,20.3125Q13.968760445404053,19.03125,13.999960445404053,17.3125Q13.999960445404053,16.90625,13.719360445404053,16.625Q13.438760445404053,16.34375,13.033360445404053,16.34375L0.9977494454040527,16.34375Q0.5924044454040527,16.34375,0.31178044540405275,16.625Q0.031157175404052734,16.90625,0.031157175404052734,17.3125Q0.06233754540405274,19.03125,1.0289304454040527,20.3125Q1.9643404454040527,21.59375,3.5233604454040526,22.09375Z" fill="#374151" fill-opacity="1" style="mix-blend-mode:passthrough"/></g></g></g></svg>